REM DIRINDEX 1\3,1\2\4,1\2\5,1\2\6
REM DIRNAME cjc137,folder01,folder02,folder03,folder04,folder05
TITLE ""
FILE "015.mp3" MP3
  TRACK 01 AUDIO
    TITLE "4:cjc137_0591"
    INDEX 01 00:00:00
  TRACK 02 AUDIO
    TITLE "0:"
    INDEX 01 00:00:74
  TRACK 03 AUDIO
    TITLE "6:cjc137_0592"
    INDEX 01 00:01:11
  TRACK 04 AUDIO
    TITLE "0:"
    INDEX 01 00:02:28
  TRACK 05 AUDIO
    TITLE "5:cjc137_0593"
    INDEX 01 00:02:40
  TRACK 06 AUDIO
    TITLE "0:"
    INDEX 01 00:03:39
  TRACK 07 AUDIO
    TITLE "4:cjc137_0594"
    INDEX 01 00:04:46
  TRACK 08 AUDIO
    TITLE "0:"
    INDEX 01 00:05:63
  TRACK 09 AUDIO
    TITLE "6:cjc137_0595"
    INDEX 01 00:05:73
  TRACK 10 AUDIO
    TITLE "0:"
    INDEX 01 00:07:13
  TRACK 11 AUDIO
    TITLE "5:cjc137_0596"
    INDEX 01 00:07:23
  TRACK 12 AUDIO
    TITLE "0:"
    INDEX 01 00:08:40
  TRACK 13 AUDIO
    TITLE "4:cjc137_0597"
    INDEX 01 00:09:45
  TRACK 14 AUDIO
    TITLE "0:"
    INDEX 01 00:10:66
  TRACK 15 AUDIO
    TITLE "6:cjc137_0598"
    INDEX 01 00:11:11
  TRACK 16 AUDIO
    TITLE "0:"
    INDEX 01 00:12:38
  TRACK 17 AUDIO
    TITLE "5:cjc137_0599"
    INDEX 01 00:12:48
  TRACK 18 AUDIO
    TITLE "0:"
    INDEX 01 00:13:69
  TRACK 19 AUDIO
    TITLE "4:cjc137_0600"
    INDEX 01 00:15:07
  TRACK 20 AUDIO
    TITLE "0:"
    INDEX 01 00:16:10
  TRACK 21 AUDIO
    TITLE "6:cjc137_0601"
    INDEX 01 00:16:22
  TRACK 22 AUDIO
    TITLE "0:"
    INDEX 01 00:17:45
  TRACK 23 AUDIO
    TITLE "5:cjc137_0602"
    INDEX 01 00:17:57
  TRACK 24 AUDIO
    TITLE "0:"
    INDEX 01 00:18:60
  TRACK 25 AUDIO
    TITLE "4:cjc137_0603"
    INDEX 01 00:19:69
  TRACK 26 AUDIO
    TITLE "0:"
    INDEX 01 00:20:71
  TRACK 27 AUDIO
    TITLE "6:cjc137_0604"
    INDEX 01 00:21:11
  TRACK 28 AUDIO
    TITLE "0:"
    INDEX 01 00:22:13
  TRACK 29 AUDIO
    TITLE "5:cjc137_0605"
    INDEX 01 00:22:23
  TRACK 30 AUDIO
    TITLE "0:"
    INDEX 01 00:23:26
  TRACK 31 AUDIO
    TITLE "4:cjc137_0606"
    INDEX 01 00:24:35
  TRACK 32 AUDIO
    TITLE "0:"
    INDEX 01 00:25:35
  TRACK 33 AUDIO
    TITLE "6:cjc137_0607"
    INDEX 01 00:25:50
  TRACK 34 AUDIO
    TITLE "0:"
    INDEX 01 00:26:34
  TRACK 35 AUDIO
    TITLE "5:cjc137_0608"
    INDEX 01 00:26:46
  TRACK 36 AUDIO
    TITLE "0:"
    INDEX 01 00:27:47
  TRACK 37 AUDIO
    TITLE "4:cjc137_0609"
    INDEX 01 00:28:59
  TRACK 38 AUDIO
    TITLE "0:"
    INDEX 01 00:29:74
  TRACK 39 AUDIO
    TITLE "6:cjc137_0610"
    INDEX 01 00:30:12
  TRACK 40 AUDIO
    TITLE "0:"
    INDEX 01 00:31:41
  TRACK 41 AUDIO
    TITLE "5:cjc137_0611"
    INDEX 01 00:31:53
  TRACK 42 AUDIO
    TITLE "0:"
    INDEX 01 00:32:70
  TRACK 43 AUDIO
    TITLE "4:cjc137_0612"
    INDEX 01 00:34:04
  TRACK 44 AUDIO
    TITLE "0:"
    INDEX 01 00:34:73
  TRACK 45 AUDIO
    TITLE "6:cjc137_0613"
    INDEX 01 00:35:12
  TRACK 46 AUDIO
    TITLE "0:"
    INDEX 01 00:36:29
  TRACK 47 AUDIO
    TITLE "5:cjc137_0614"
    INDEX 01 00:36:42
  TRACK 48 AUDIO
    TITLE "0:"
    INDEX 01 00:37:36
  TRACK 49 AUDIO
    TITLE "4:cjc137_0615"
    INDEX 01 00:38:47
  TRACK 50 AUDIO
    TITLE "0:"
    INDEX 01 00:39:72
  TRACK 51 AUDIO
    TITLE "6:cjc137_0616"
    INDEX 01 00:40:09
  TRACK 52 AUDIO
    TITLE "0:"
    INDEX 01 00:41:59
  TRACK 53 AUDIO
    TITLE "5:cjc137_0617"
    INDEX 01 00:41:69
  TRACK 54 AUDIO
    TITLE "0:"
    INDEX 01 00:43:19
  TRACK 55 AUDIO
    TITLE "4:cjc137_0618"
    INDEX 01 00:44:26
  TRACK 56 AUDIO
    TITLE "0:"
    INDEX 01 00:45:49
  TRACK 57 AUDIO
    TITLE "6:cjc137_0619"
    INDEX 01 00:45:57
  TRACK 58 AUDIO
    TITLE "0:"
    INDEX 01 00:46:56
  TRACK 59 AUDIO
    TITLE "5:cjc137_0620"
    INDEX 01 00:46:66
  TRACK 60 AUDIO
    TITLE "0:"
    INDEX 01 00:48:14
  TRACK 61 AUDIO
    TITLE "4:cjc137_0621"
    INDEX 01 00:49:20
  TRACK 62 AUDIO
    TITLE "0:"
    INDEX 01 00:50:19
  TRACK 63 AUDIO
    TITLE "6:cjc137_0622"
    INDEX 01 00:50:29
  TRACK 64 AUDIO
    TITLE "0:"
    INDEX 01 00:51:18
  TRACK 65 AUDIO
    TITLE "5:cjc137_0623"
    INDEX 01 00:51:28
  TRACK 66 AUDIO
    TITLE "0:"
    INDEX 01 00:52:26
  TRACK 67 AUDIO
    TITLE "4:cjc137_0624"
    INDEX 01 00:53:35
  TRACK 68 AUDIO
    TITLE "0:"
    INDEX 01 00:54:40
  TRACK 69 AUDIO
    TITLE "6:cjc137_0625"
    INDEX 01 00:54:54
  TRACK 70 AUDIO
    TITLE "0:"
    INDEX 01 00:55:48
  TRACK 71 AUDIO
    TITLE "5:cjc137_0626"
    INDEX 01 00:55:61
  TRACK 72 AUDIO
    TITLE "0:"
    INDEX 01 00:56:65
  TRACK 73 AUDIO
    TITLE "4:cjc137_0627"
    INDEX 01 00:58:03
  TRACK 74 AUDIO
    TITLE "0:"
    INDEX 01 00:59:18
  TRACK 75 AUDIO
    TITLE "6:cjc137_0628"
    INDEX 01 00:59:30
  TRACK 76 AUDIO
    TITLE "0:"
    INDEX 01 01:00:49
  TRACK 77 AUDIO
    TITLE "5:cjc137_0629"
    INDEX 01 01:00:62
  TRACK 78 AUDIO
    TITLE "0:"
    INDEX 01 01:02:03
  TRACK 79 AUDIO
    TITLE "4:cjc137_0630"
    INDEX 01 01:03:14
  TRACK 80 AUDIO
    TITLE "0:"
    INDEX 01 01:04:21
  TRACK 81 AUDIO
    TITLE "6:cjc137_0631"
    INDEX 01 01:04:35
  TRACK 82 AUDIO
    TITLE "0:"
    INDEX 01 01:05:36
  TRACK 83 AUDIO
    TITLE "5:cjc137_0632"
    INDEX 01 01:05:52
  TRACK 84 AUDIO
    TITLE "0:"
    INDEX 01 01:06:59
